<?xml version="1.0" encoding="UTF-8" standalone="no"?>
<svg
   xmlns:dc="http://purl.org/dc/elements/1.1/"
   xmlns:cc="http://creativecommons.org/ns#"
   xmlns:rdf="http://www.w3.org/1999/02/22-rdf-syntax-ns#"
   xmlns:svg="http://www.w3.org/2000/svg"
   xmlns="http://www.w3.org/2000/svg"
   viewBox="0 0 1520.72 1441.4399"
   height="1441.4399"
   width="1520.72"
   xml:space="preserve"
   id="svg2"
   version="1.1"><metadata
     id="metadata8"><rdf:RDF><cc:Work
         rdf:about=""><dc:format>image/svg+xml</dc:format><dc:type
           rdf:resource="http://purl.org/dc/dcmitype/StillImage" /></cc:Work></rdf:RDF></metadata><defs
     id="defs6"><clipPath
       id="clipPath18"
       clipPathUnits="userSpaceOnUse"><path
         id="path16"
         d="M 0,1081.081 H 1140.541 V 0 H 0 Z" /></clipPath><clipPath
       id="clipPath86"
       clipPathUnits="userSpaceOnUse"><path
         id="path84"
         d="M 103.512,914.499 H 308.337 V 671.681 H 103.512 Z" /></clipPath><clipPath
       id="clipPath90"
       clipPathUnits="userSpaceOnUse"><path
         id="path88"
         d="m 305.647,830.493 c -9.243,16.45 -20.651,31.732 -33.881,45.196 -6.582,6.698 -13.643,12.882 -21.063,18.633 -7.268,5.634 -15.038,11.893 -23.547,15.516 -10.943,4.661 -18.661,-0.655 -27.062,-7.431 -7.917,-6.385 -15.795,-12.831 -23.283,-19.72 -7.467,-6.869 -14.483,-14.196 -20.749,-22.183 -6.176,-7.871 -11.446,-16.511 -18.312,-23.822 -7.703,-8.2 -17.394,-14.207 -24.263,-23.226 -6.781,-8.905 -9.975,-19.448 -7.541,-30.511 0.39,-1.772 1.283,-3.186 2.467,-4.25 -2.638,-12.026 -4.097,-24.298 -4.392,-36.661 -0.059,-2.429 0.672,-4.355 1.861,-5.796 0.427,-0.784 0.99,-1.551 1.725,-2.282 21.61,-21.497 44.766,-41.28 69.218,-59.472 3.767,-2.803 10.742,-0.86 12.686,3.326 25.539,54.995 64.247,103.57 112.81,139.997 4.061,3.047 6.016,7.899 3.326,12.686" /></clipPath><clipPath
       id="clipPath118"
       clipPathUnits="userSpaceOnUse"><path
         id="path116"
         d="M 843.336,920.085 H 1050.17 V 675.221 H 843.336 Z" /></clipPath><clipPath
       id="clipPath122"
       clipPathUnits="userSpaceOnUse"><path
         id="path120"
         d="m 849.412,822.579 c 49.038,-36.734 88.125,-85.719 113.914,-141.177 1.963,-4.222 9.007,-6.181 12.81,-3.354 24.692,18.345 48.074,38.295 69.896,59.973 0.742,0.737 1.31,1.51 1.742,2.301 1.2,1.453 1.937,3.395 1.879,5.846 -0.298,12.466 -1.772,24.841 -4.435,36.969 1.196,1.074 2.097,2.499 2.49,4.286 2.459,11.156 -0.766,21.788 -7.614,30.768 -6.936,9.095 -16.722,15.152 -24.5,23.422 -6.933,7.373 -12.256,16.085 -18.492,24.023 -6.327,8.054 -13.412,15.442 -20.952,22.37 -7.561,6.946 -15.517,13.447 -23.511,19.886 -8.483,6.833 -16.277,12.194 -27.327,7.493 -8.592,-3.654 -16.437,-9.965 -23.777,-15.647 -7.492,-5.799 -14.623,-12.035 -21.269,-18.79 -13.359,-13.577 -24.88,-28.988 -34.214,-45.576 -2.716,-4.828 -0.742,-9.721 3.36,-12.793" /></clipPath><clipPath
       id="clipPath174"
       clipPathUnits="userSpaceOnUse"><path
         id="path172"
         d="M 337.5,743.426 H 815.25 V 528.28 H 337.5 Z" /></clipPath><clipPath
       id="clipPath178"
       clipPathUnits="userSpaceOnUse"><path
         id="path176"
         d="M 815.251,636.594 731.295,743.425 392.125,722.428 337.5,556.559 348.971,528.28 Z" /></clipPath></defs><g
     transform="matrix(1.3333333,0,0,-1.3333333,0,1441.44)"
     id="g10"><g
       id="g12"><g
         clip-path="url(#clipPath18)"
         id="g14"><g
           transform="translate(643.7789,441.1613)"
           id="g20"><path
             id="path22"
             style="fill:#212121;fill-opacity:1;fill-rule:nonzero;stroke:none"
             d="m 0,0 c -5.11,3.536 -11.593,2.959 -17.539,3.108 -29.065,0.729 -58.134,1.222 -87.207,1.496 -0.382,0.004 -0.752,-0.037 -1.12,-0.083 -5.758,0.453 -12.149,-4.179 -10.213,-11.468 0.843,-3.174 1.637,-6.358 2.404,-9.546 -0.424,-1.105 -0.653,-2.39 -0.617,-3.869 0.263,-10.925 1.515,-21.768 3.771,-32.406 0.218,-1.865 0.435,-3.731 0.652,-5.597 0.737,-6.333 1.474,-12.667 2.212,-19.001 0.637,-5.478 0.268,-12.598 3.334,-17.388 2.978,-4.653 8.052,-6.028 13.242,-6.383 6.43,-0.44 12.922,-0.44 19.363,-0.659 12.384,-0.422 25.455,-2.1 37.808,-1.135 23.057,1.802 28.413,35.386 32.19,53.256 2.545,12.038 6.512,24.795 7.302,37.088 C 5.896,-7.683 4.142,-2.865 0,0" /></g><g
           transform="translate(337.7588,868.9152)"
           id="g24"><path
             id="path26"
             style="fill:#212121;fill-opacity:1;fill-rule:nonzero;stroke:none"
             d="m 0,0 c -14.447,18.953 -28.83,37.957 -43.343,56.859 -7.356,9.58 -15.945,18.953 -28.828,19.851 -5.858,0.409 -10.873,-1.098 -16.126,-3.512 -1.64,-0.754 -3.606,-1.535 -5.232,-2.519 -6.113,2.128 -13.851,-2.096 -16.892,-7.295 -3.556,-6.079 -2.252,-13.664 2.417,-18.727 44.201,-47.931 88.745,-95.547 133.627,-142.842 2.832,-2.984 6.009,-4.401 9.149,-4.673 1.573,-0.539 3.332,-0.847 5.29,-0.847 0.137,0 0.263,0.017 0.397,0.019 7.011,-9.197 14.022,-18.395 21.033,-27.592 5.051,-6.626 13.315,-10.123 21.143,-5.544 6.525,3.817 10.635,14.465 5.544,21.143 z" /></g><g
           transform="translate(322.0464,572.0124)"
           id="g28"><path
             id="path30"
             style="fill:#212121;fill-opacity:1;fill-rule:nonzero;stroke:none"
             d="m 0,0 c -18.25,-1.861 -33.623,9.162 -47.618,21.565 -17.671,15.662 -34.652,32.106 -52.302,47.801 -36.415,32.381 -73.91,63.532 -112.367,93.457 -8.023,6.242 -18.349,6.007 -24.271,-3.128 -12.494,-19.271 -3.164,-42.575 11.776,-57.251 14.684,-14.422 31.989,-26.675 48.228,-39.267 36.087,-27.98 72.255,-55.857 108.426,-83.727 19.069,-14.692 41.32,-28.01 66.268,-21.476 7.815,2.047 11.106,8.189 10.964,14.419 3.804,2.672 6.349,6.821 6.349,12.153 C 15.453,-7.754 8.354,0.852 0,0" /></g><g
           transform="translate(1072.9028,726.6682)"
           id="g32"><path
             id="path34"
             style="fill:#212121;fill-opacity:1;fill-rule:nonzero;stroke:none"
             d="m 0,0 c -2.45,8.751 -14.493,15.325 -22.701,9.235 -38.684,-28.696 -76.459,-58.624 -113.123,-89.862 -17.056,-14.531 -33.498,-29.783 -50.621,-44.227 -13.808,-11.649 -30.432,-23.388 -48.013,-24.941 -7.798,-0.688 -14.562,-5.872 -15.372,-13.838 -2.252,-2.033 -3.97,-4.618 -4.722,-7.355 -2.404,-8.751 2.988,-15.965 10.793,-19.01 25.927,-10.114 51.801,5.881 71.591,21.41 22.152,17.383 43.846,35.383 65.749,53.079 3.177,2.566 7.052,3.388 7.182,6.785 15.103,10.59 27.734,23.652 42.838,34.242 C -32.552,-57.761 10.041,-35.868 0,0" /></g><g
           transform="translate(927.815,935.6935)"
           id="g36"><path
             id="path38"
             style="fill:#212121;fill-opacity:1;fill-rule:nonzero;stroke:none"
             d="m 0,0 c -9.492,16.136 -30.334,20.815 -47.029,13.82 -17.958,-7.525 -29.23,-24.895 -40.863,-39.639 -25.267,-32.026 -49.787,-64.643 -73.437,-97.881 -13.608,-19.123 -26.858,-38.491 -40.042,-57.907 -4.691,-6.908 -1.315,-17.132 5.544,-21.143 7.626,-4.461 16.441,-1.38 21.142,5.544 5.468,8.052 10.969,16.08 16.496,24.088 3.417,0.327 6.696,1.739 9.084,4.379 46.929,51.888 95.864,101.932 146.689,150.012 C 2.527,-14.05 3.402,-5.783 0,0" /></g><g
           transform="translate(644.4595,437.2565)"
           id="g40"><path
             id="path42"
             style="fill:#0f0f0f;fill-opacity:1;fill-rule:nonzero;stroke:none"
             d="m 0,0 c -6.447,5.746 -19.401,4.651 -28.266,4.95 -16.558,0.559 -33.193,0.702 -49.646,2.192 -5.462,0.691 -10.926,1.366 -16.399,2.006 -4.479,0.524 -8.9,-0.686 -10.838,-3.87 -1.861,0.545 -3.729,1.074 -5.585,1.629 -4.706,1.407 -10.126,-1.554 -11.406,-5.022 -1.492,-4.046 2.516,-16.952 7.167,-18.343 20.566,-6.15 39.436,-4.737 60.592,-9.54 10.575,-2.4 22.525,-2.062 33.222,-4.113 4.643,-0.89 10.272,-2.683 15.1,-1.841 5.388,0.94 8.13,4.41 8.62,8.449 0.512,4.228 0.418,8.547 0.59,12.795 C 3.308,-6.85 3.468,-3.091 0,0" /></g><g
           transform="translate(630.1324,382.1252)"
           id="g44"><path
             id="path46"
             style="fill:#0f0f0f;fill-opacity:1;fill-rule:nonzero;stroke:none"
             d="m 0,0 c -8.423,2.018 -18.57,1.707 -27.316,2.369 -19.27,1.457 -38.539,2.915 -57.809,4.372 -3.233,0.244 -5.573,-0.657 -7.038,-2.108 -7.058,-2.212 -8.542,-11.788 0.806,-13.79 18.672,-3.997 37.345,-7.994 56.018,-11.992 8.712,-1.865 17.471,-4.189 26.319,-5.6 10.412,-1.659 13.9,4.656 17.002,11.044 C 11.048,-9.393 9.168,-2.197 0,0" /></g><g
           transform="translate(417.9893,760.7336)"
           id="g48"><path
             id="path50"
             style="fill:#0f0f0f;fill-opacity:1;fill-rule:nonzero;stroke:none"
             d="m 0,0 c -1.009,0.103 -2.019,0.206 -3.028,0.309 0.589,2.524 0.079,5.272 -2.231,8.266 -1.327,1.72 -3.184,3.006 -5.341,3.987 0.268,2.567 -0.335,5.235 -1.976,7.631 -2.1,3.064 -5.451,5.293 -9.336,6.923 1.357,4.82 -0.432,10.824 -6.13,11.65 -1.703,0.247 -3.406,0.493 -5.109,0.74 1.476,4.703 -1.036,10.264 -6.155,11.798 -0.95,2.16 -2.825,3.962 -5.811,4.785 -5.085,1.402 -10.17,2.804 -15.255,4.205 -14.421,4.231 -28.628,9.138 -42.6,14.723 -4.684,1.872 -10.139,-2.047 -11.406,-6.476 -1.506,-5.264 1.847,-9.556 6.476,-11.406 5.939,-2.374 11.924,-4.612 17.946,-6.741 0.571,-0.527 1.233,-1.007 2.017,-1.416 3.506,-1.832 7.013,-3.662 10.52,-5.493 0.3,-4.162 3.074,-8.405 7.563,-9.323 -0.264,-4.114 1.76,-8.188 6.595,-8.889 2.978,-0.431 5.955,-0.862 8.932,-1.294 -1.437,-5.198 1.261,-11.271 8.552,-11.318 1.038,-0.007 2.337,-0.031 3.762,-0.099 -2.886,-5.032 -1.421,-12.913 5.224,-13.892 2.022,-0.298 4.04,-0.615 6.054,-0.949 -3.887,-5.599 2.07,-13.338 8.318,-13.976 7.473,-0.763 14.946,-1.526 22.419,-2.289 4.989,-0.51 9.272,4.626 9.272,9.272 C 9.272,-3.835 5.003,-0.511 0,0" /></g><g
           transform="translate(317.0992,566.5969)"
           id="g52"><path
             id="path54"
             style="fill:#0f0f0f;fill-opacity:1;fill-rule:nonzero;stroke:none"
             d="m 0,0 c -1.6,8.156 -10.766,8.213 -15.399,3.548 -1.606,3.797 -4.746,5.837 -8.171,5.96 -0.006,2.383 -0.855,4.74 -2.678,6.343 -2.937,2.582 -5.979,4.993 -9.146,7.221 -14.891,11.931 -29.307,24.429 -43.228,37.478 -1.871,3.597 -3.84,7.145 -5.896,10.644 0.076,3.11 0.048,6.223 -0.093,9.352 -0.515,11.359 -17.468,11.914 -18.495,1.507 -2.766,-1.979 -4.482,-5.427 -3.47,-9.692 1.078,-4.541 0.919,-9.082 1.997,-13.623 0.075,-0.317 0.163,-0.618 0.258,-0.91 -0.199,-6.661 1.985,-13.503 2.217,-20.114 0.258,-7.325 0.582,-15.089 2.966,-22.088 5.624,-16.51 23.136,-24.845 35.804,-35.458 2.344,-1.964 5.845,-2.819 8.94,-2.285 5.437,-4.922 12.148,-7.885 20.049,-5.562 0.974,-2.57 3.043,-4.687 6.053,-5.457 7.554,-1.933 15.221,-3.122 22.994,-3.717 4.674,-0.357 9.719,4.55 9.272,9.272 C 3.098,-18.324 1.79,-9.124 0,0" /></g><g
           transform="translate(845.6734,830.5104)"
           id="g56"><path
             id="path58"
             style="fill:#0f0f0f;fill-opacity:1;fill-rule:nonzero;stroke:none"
             d="M 0,0 C -1.268,4.429 -6.722,8.349 -11.406,6.476 -25.378,0.891 -39.585,-4.015 -54.007,-8.246 c -5.084,-1.402 -10.169,-2.804 -15.254,-4.206 -2.986,-0.822 -4.861,-2.624 -5.811,-4.785 -5.119,-1.534 -7.631,-7.095 -6.155,-11.798 -1.703,-0.246 -3.406,-0.493 -5.109,-0.74 -5.698,-0.826 -7.487,-6.829 -6.131,-11.649 -3.884,-1.631 -7.235,-3.859 -9.336,-6.924 -1.64,-2.395 -2.244,-5.064 -1.975,-7.631 -2.157,-0.981 -4.014,-2.266 -5.341,-3.987 -2.311,-2.993 -2.819,-5.742 -2.231,-8.265 -1.009,-0.104 -2.019,-0.207 -3.028,-0.31 -5.004,-0.511 -9.272,-3.834 -9.272,-9.272 0,-4.645 4.283,-9.781 9.272,-9.272 7.473,0.763 14.945,1.526 22.419,2.289 6.248,0.638 12.205,8.377 8.317,13.976 2.015,0.334 4.033,0.652 6.054,0.949 6.646,0.979 8.11,8.861 5.225,13.892 1.425,0.068 2.723,0.092 3.762,0.099 7.29,0.047 9.989,6.12 8.552,11.318 2.977,0.432 5.954,0.863 8.932,1.295 4.835,0.701 6.859,4.775 6.595,8.889 4.489,0.917 7.262,5.161 7.563,9.322 3.507,1.831 7.014,3.662 10.52,5.493 0.783,0.409 1.446,0.89 2.016,1.416 6.022,2.13 12.008,4.368 17.946,6.742 C -1.847,-9.555 1.506,-5.264 0,0" /></g><g
           transform="translate(935.2916,649.8864)"
           id="g60"><path
             id="path62"
             style="fill:#0f0f0f;fill-opacity:1;fill-rule:nonzero;stroke:none"
             d="m 0,0 c -1.027,10.406 -17.98,9.852 -18.495,-1.507 -0.142,-3.129 -0.169,-6.242 -0.094,-9.352 -2.056,-3.499 -4.024,-7.047 -5.895,-10.644 -13.921,-13.049 -28.337,-25.547 -43.229,-37.478 -3.167,-2.228 -6.209,-4.639 -9.145,-7.222 -1.823,-1.602 -2.672,-3.96 -2.678,-6.342 -3.426,-0.123 -6.565,-2.163 -8.171,-5.96 -4.634,4.665 -13.799,4.608 -15.399,-3.548 -1.79,-9.124 -3.098,-18.324 -3.974,-27.581 -0.447,-4.722 4.598,-9.63 9.271,-9.272 7.774,0.595 15.441,1.784 22.995,3.717 3.009,0.77 5.079,2.886 6.052,5.457 7.902,-2.323 14.613,0.64 20.049,5.562 3.096,-0.535 6.597,0.32 8.942,2.285 12.667,10.613 30.179,18.947 35.803,35.458 2.384,6.998 2.708,14.762 2.966,22.088 0.232,6.61 2.416,13.452 2.217,20.113 0.095,0.292 0.182,0.594 0.258,0.911 1.078,4.541 0.919,9.082 1.997,13.623 C 4.481,-5.427 2.766,-1.979 0,0" /></g><g
           transform="translate(389.2593,732.3976)"
           id="g64"><path
             id="path66"
             style="fill:#eb72f2;fill-opacity:1;fill-rule:nonzero;stroke:none"
             d="m 0,0 c -0.183,2.086 -0.359,4.175 -0.583,6.257 -0.609,5.658 -4.153,10.436 -7.184,15.144 -6.331,9.836 -13.541,19.139 -21.215,27.96 -15.453,17.764 -33.037,33.493 -50.487,49.239 -17.278,15.591 -34.587,31.282 -49.739,48.999 -7.463,8.725 -13.247,18.757 -20.707,27.412 -3.62,4.2 -8.438,7.494 -14.045,8.112 -7.301,0.805 -12.939,-3.061 -18.494,-7.257 -21.752,-16.431 -40.411,-36.241 -57.726,-57.207 -8.558,-10.363 -16.846,-20.951 -25.084,-31.569 -8.869,-11.43 -15.847,-23.038 -18.971,-37.335 -2.809,-12.857 -4.647,-27.373 -1.964,-40.379 1.035,-5.019 2.775,-10.464 6.395,-14.248 3.912,-4.09 9.409,-6.008 14.253,-8.728 21.558,-12.105 40.206,-29.046 59.096,-44.808 11.016,-9.192 22.352,-17.884 33.666,-26.695 10.58,-8.239 20.168,-17.703 29.751,-27.055 19.316,-18.852 38.882,-37.137 64.095,-47.706 7.392,-3.099 12.214,5.442 11.405,11.406 -1.985,14.626 -3.539,29.315 -4.722,44.028 -1.027,12.777 -3.609,25.325 5.999,35.33 19.823,20.642 41.466,39.797 62.207,59.536 2.304,1.105 4.001,3.212 4.208,6.324 C 0.332,-2.145 0.262,-1.051 0,0" /></g><g
           transform="translate(1050.9292,772.4377)"
           id="g68"><path
             id="path70"
             style="fill:#eb72f2;fill-opacity:1;fill-rule:nonzero;stroke:none"
             d="m 0,0 c -0.495,1.466 -1.196,2.663 -2.033,3.618 0.98,4.488 2.051,8.788 2.213,12.259 0.657,14.035 -6.125,26.332 -14.678,36.92 -9.655,11.953 -21.318,22.455 -32.112,33.359 -11.444,11.559 -22.886,23.118 -34.328,34.677 -5.356,5.411 -10.634,10.913 -16.08,16.232 -4.869,4.755 -10.554,9.019 -17.601,9.422 -6.923,0.396 -12.635,-3.392 -17.524,-7.861 -5.908,-5.4 -11.449,-11.268 -17.148,-16.889 -22.729,-22.413 -45.553,-44.736 -68.148,-67.284 -24.995,-24.939 -49.448,-50.462 -71.51,-78.065 -0.473,-0.592 -0.881,-1.217 -1.234,-1.861 -3.313,-3.985 -3.799,-10.65 1.873,-14.247 13.974,-8.862 27.949,-17.724 41.923,-26.587 5.547,-3.517 11.35,-6.851 15.968,-11.588 4.843,-4.967 6.415,-11.187 6.623,-17.965 0.466,-15.188 -1.621,-30.498 -1.612,-45.721 0.009,-16.815 0.973,-33.604 2.773,-50.32 0.908,-8.439 9.281,-11.652 15.828,-6.557 40.644,31.623 81.289,63.246 121.932,94.869 19.364,15.066 39.296,29.625 58.097,45.391 7.852,6.585 14.917,14.21 19.933,22.765 4.759,-0.141 9.224,3.824 9.8,9.237 C 3.899,-17.326 2.858,-8.447 0,0" /></g><g
           transform="translate(242.0347,625.1042)"
           id="g72"><path
             id="path74"
             style="fill:#c361ce;fill-opacity:1;fill-rule:nonzero;stroke:none"
             d="m 0,0 c 34.397,-6.064 71.733,14.124 84.879,45.896 -0.592,-29.951 -1.184,-59.902 -1.777,-89.853 -0.054,-2.729 -0.267,-5.805 -2.38,-7.58 -1.418,-1.191 -3.385,-1.497 -5.248,-1.615 -18.422,-1.162 -34.535,11.22 -48.634,22.911 -10.31,8.547 -20.619,17.095 -30.928,25.642" /></g><g
           transform="translate(911.1216,628.5065)"
           id="g76"><path
             id="path78"
             style="fill:#c361ce;fill-opacity:1;fill-rule:nonzero;stroke:none"
             d="m 0,0 c -34.396,-6.064 -71.732,14.124 -84.88,45.896 0.593,-29.951 1.186,-59.901 1.777,-89.853 0.055,-2.728 0.268,-5.805 2.381,-7.579 1.418,-1.191 3.385,-1.498 5.248,-1.615 18.421,-1.162 34.535,11.22 48.634,22.91 10.31,8.548 20.619,17.095 30.929,25.643" /></g><g
           id="g80"><g
             id="g82" /><g
             id="g110"><g
               style="opacity:0.25"
               id="g108"
               clip-path="url(#clipPath86)"><g
                 id="g106"><g
                   id="g104"
                   clip-path="url(#clipPath90)"><g
                     id="g94"
                     transform="translate(172.5445,671.6813)"><path
                       id="path92"
                       style="fill:#ffffff;fill-opacity:1;fill-rule:nonzero;stroke:none"
                       d="m 0,0 -13.988,12.109 145.605,168.197 4.176,-3.616 V 0 Z" /></g><g
                     id="g98"
                     transform="translate(158.5567,683.7902)"><path
                       id="path96"
                       style="fill:#ffffff;fill-opacity:1;fill-rule:nonzero;stroke:none"
                       d="M 0,0 -54.279,46.989 91.325,215.185 145.604,168.197 Z" /></g><g
                     id="g102"
                     transform="translate(104.2774,730.779)"><path
                       id="path100"
                       style="fill:#ffffff;fill-opacity:1;fill-rule:nonzero;stroke:none"
                       d="M 0,0 -0.765,0.662 V 183.72 h 128.437 l 17.932,-15.524 z" /></g></g></g></g></g></g><g
           id="g112"><g
             id="g114" /><g
             id="g142"><g
               style="opacity:0.25"
               id="g140"
               clip-path="url(#clipPath118)"><g
                 id="g138"><g
                   id="g136"
                   clip-path="url(#clipPath122)"><g
                     id="g126"
                     transform="translate(843.3365,841.446)"><path
                       id="path124"
                       style="fill:#ffffff;fill-opacity:1;fill-rule:nonzero;stroke:none"
                       d="m 0,0 151.035,-157.2 -9.392,-9.025 H 0 Z" /></g><g
                     id="g130"
                     transform="translate(843.3365,849.2643)"><path
                       id="path128"
                       style="fill:#ffffff;fill-opacity:1;fill-rule:nonzero;stroke:none"
                       d="M 0,0 53.669,51.565 206.83,-107.847 v -3.564 L 151.035,-165.019 0,-7.818 Z" /></g><g
                     id="g134"
                     transform="translate(897.0054,900.8298)"><path
                       id="path132"
                       style="fill:#ffffff;fill-opacity:1;fill-rule:nonzero;stroke:none"
                       d="M 0,0 20.042,19.256 H 153.161 V -159.412 Z" /></g></g></g></g></g></g><g
           transform="translate(410.0996,713.1711)"
           id="g144"><path
             id="path146"
             style="fill:#723275;fill-opacity:1;fill-rule:nonzero;stroke:none"
             d="m 0,0 -52.82,-64.558 10.271,-142.319 102.187,-32.944 h 227.13 75.635 l 30.811,55.462 V -63.09 L 362.403,-11.314 327.19,7.336 H 10.271 Z" /></g><g
           transform="translate(793.4693,635.8879)"
           id="g148"><path
             id="path150"
             style="fill:#512659;fill-opacity:1;fill-rule:nonzero;stroke:none"
             d="m 0,0 c -0.861,22.807 -15.119,41.643 -35.414,50.836 -23.971,10.858 -51.476,11.147 -77.32,12.428 -57.652,2.856 -115.421,1.509 -173.046,-1.314 -17.838,-0.874 -35.666,-1.839 -53.075,-4.97 -0.458,0.142 -0.941,0.261 -1.466,0.34 -13.095,1.958 -25.914,-1.66 -34.923,-11.729 -1.37,-1.531 -2.17,-3.131 -2.507,-4.696 -17.527,-11.499 -36.721,-24.206 -44.668,-44.038 -3.969,-9.904 2.283,-23.379 7.776,-13.546 12.688,22.715 43.53,42.889 67.354,53.288 16.892,4.317 34.646,5.418 51.949,6.325 26.488,1.389 52.998,2.457 79.518,3.001 26.183,0.537 52.382,0.544 78.561,-0.237 24.514,-0.73 50.172,-0.606 74.293,-5.458 20.541,-4.131 54.3,-28.917 55.206,-52.916 0.023,-0.584 6.522,-8.008 3.848,-7.428 -0.718,-5.077 -5.524,5.226 -3.848,7.428 3.483,4.573 7.549,4.16 7.762,8.62 0.4,1.063 0.053,2.681 0,4.066" /></g><g
           transform="translate(668.8931,600.6843)"
           id="g152"><path
             id="path154"
             style="fill:#48c6f7;fill-opacity:1;fill-rule:nonzero;stroke:none"
             d="m 0,0 c 0,45.979 -37.274,83.253 -83.254,83.253 -45.979,0 -83.253,-37.274 -83.253,-83.253 0,-45.98 37.274,-83.254 83.253,-83.254 C -37.274,-83.254 0,-45.98 0,0" /></g><g
           transform="translate(563.4068,597.6306)"
           id="g156"><path
             id="path158"
             style="fill:#000000;fill-opacity:1;fill-rule:nonzero;stroke:none"
             d="m 0,0 c 2.266,4.038 5.072,7.354 8.155,9.377 4.207,2.761 9.37,4.581 12.806,4.94 9.71,1.018 20.31,-2.615 26.087,-9.388 5.065,-5.938 13.304,-9.093 21.143,-4.976 6.512,3.419 10.65,12.994 5.543,18.979 C 61.296,33.513 42.091,43.754 20.961,42.062 0.972,40.46 -17.529,30.321 -26.687,14.003 -30.44,7.315 -28.659,-1.031 -21.143,-4.977 -14.275,-8.583 -3.77,-6.717 0,0" /></g><g
           transform="translate(674.1988,641.7668)"
           id="g160"><path
             id="path162"
             style="fill:#ffffff;fill-opacity:1;fill-rule:nonzero;stroke:none"
             d="m 0,0 c 0,-12.155 -9.854,-22.008 -22.008,-22.008 -12.155,0 -22.009,9.853 -22.009,22.008 0,12.155 9.854,22.008 22.009,22.008 C -9.854,22.008 0,12.155 0,0" /></g><g
           transform="translate(671.8199,604.9767)"
           id="g164"><path
             id="path166"
             style="fill:#ffffff;fill-opacity:1;fill-rule:nonzero;stroke:none"
             d="m 0,0 c 0,-6.003 -4.866,-10.869 -10.869,-10.869 -6.003,0 -10.869,4.866 -10.869,10.869 0,6.003 4.866,10.869 10.869,10.869 C -4.866,10.869 0,6.003 0,0" /></g><g
           id="g168"><g
             id="g170" /><g
             id="g198"><g
               style="opacity:0.14999402"
               id="g196"
               clip-path="url(#clipPath174)"><g
                 id="g194"><g
                   id="g192"
                   clip-path="url(#clipPath178)"><g
                     id="g182"
                     transform="translate(339.9317,528.28)"><path
                       id="path180"
                       style="fill:#ffffff;fill-opacity:1;fill-rule:nonzero;stroke:none"
                       d="M 0,0 -2.432,13.917 V 37.008 L 475.319,120.5 V 0 Z" /></g><g
                     id="g186"
                     transform="translate(337.4995,660.279)"><path
                       id="path184"
                       style="fill:#ffffff;fill-opacity:1;fill-rule:nonzero;stroke:none"
                       d="m 0,0 462.011,80.742 15.74,-90.065 v -2.176 L 0,-94.991 Z" /></g><g
                     id="g190"
                     transform="translate(799.0904,743.4255)"><path
                       id="path188"
                       style="fill:#ffffff;fill-opacity:1;fill-rule:nonzero;stroke:none"
                       d="M 0,0 0.42,-2.405 -461.591,-83.146 V 0 Z" /></g></g></g></g></g></g><g
           transform="translate(521.275,436.2707)"
           id="g200"><path
             id="path202"
             style="fill:#dd47a7;fill-opacity:1;fill-rule:nonzero;stroke:none"
             d="m 0,0 c -1.249,5.409 -4.323,8.446 -8.287,10.166 -3.918,7.257 -10.572,10.784 -18.571,11.705 -3.27,0.377 -5.818,-1.244 -7.381,-3.65 -1.533,-0.574 -2.947,-1.592 -4.094,-2.867 -7.487,2.715 -17.173,-4.908 -11.499,-12.863 7.396,-10.367 14.792,-20.735 22.188,-31.102 6.469,-9.068 11.704,-19.457 23.798,-20.773 4.623,-0.503 9.776,4.672 9.272,9.272 C 3.977,-26.876 3,-12.993 0,0" /></g><g
           transform="translate(657.3961,399.8005)"
           id="g204"><path
             id="path206"
             style="fill:#dd47a7;fill-opacity:1;fill-rule:nonzero;stroke:none"
             d="m 0,0 c 0.41,-1.276 -0.708,-2.005 0,0 m 34.823,42.104 c -6.947,5.09 -14.887,5.057 -21.323,1.905 -1.598,0.216 -2.987,0.143 -4.201,-0.158 -5.391,5.023 -16.328,2.994 -15.661,-6.228 0.706,-9.765 -5.806,-18.143 -9.356,-26.83 -3.533,-8.647 -5.583,-21.307 5.574,-25.367 11.492,-4.181 20.264,7.959 26.738,15.48 7.777,9.035 14.957,18.587 21.555,28.513 2.977,4.477 0.522,9.866 -3.326,12.685" /></g><g
           transform="translate(661.9322,830.3937)"
           id="g208"><path
             id="path210"
             style="fill:#dd47a7;fill-opacity:1;fill-rule:nonzero;stroke:none"
             d="m 0,0 c -31.658,9.676 -64.952,17.528 -98.281,14.469 -15.575,-1.43 -30.653,-4.953 -44.988,-11.26 -6.167,-2.713 -13.93,-5.776 -17.275,-12.056 -0.302,-0.568 -0.543,-1.162 -0.758,-1.767 -4.208,-1.689 -7.541,-6.596 -6.502,-11.423 1.357,-6.306 4.515,-11.801 9.087,-16.332 2.034,-2.016 4.742,-2.823 7.416,-2.569 1.994,-2.326 5.11,-3.603 8.985,-2.44 27.298,8.187 55.603,11.588 84.068,9.931 13.907,-0.81 27.102,-3.707 40.77,-6.004 16.118,-2.707 19.393,16.67 23.955,28.046 C 8.379,-6.661 4.359,-1.332 0,0" /></g><g
           transform="translate(428.0376,467.8112)"
           id="g212"><path
             id="path214"
             style="fill:#dd47a7;fill-opacity:1;fill-rule:nonzero;stroke:none"
             d="M 0,0 C 0.008,0.077 0.015,0.154 0.023,0.231 0.797,0.095 1.577,-0.01 2.354,-0.132 1.569,-0.091 0.784,-0.048 0,0 m -42.927,61 c -18.971,32.466 -3.436,75.635 -5.802,111.47 0.217,0.462 0.415,0.945 0.572,1.475 2.636,8.876 6.763,16.93 12.168,24.087 3.599,3.361 7.08,6.845 10.443,10.453 5.71,4.755 11.74,9.094 18.314,12.655 16.236,8.797 34.375,9.043 52.385,9.871 39.215,1.804 78.439,3.555 117.69,4.383 38.333,0.808 77.256,1.843 115.503,-1.352 16.788,-1.403 33.986,-4.631 48.766,-13.087 6.704,-3.836 12.653,-8.618 18.344,-13.813 7.029,-6.418 13.351,-12.401 14.989,-22.167 3.166,-18.871 3.054,-38.978 3.857,-58.063 0.414,-9.835 0.719,-19.675 0.914,-29.516 0.169,-8.515 0.766,-17.395 -1.23,-25.74 -1.952,-8.164 -6.725,-13.844 -12.764,-19.427 -5.829,-5.39 -11.613,-11.337 -17.879,-16.213 -6.88,-5.352 -14.851,-5.72 -23.228,-6.298 -9.87,-0.681 -19.753,-1.185 -29.639,-1.551 C 205.721,25.402 130.974,30.299 56.221,30.533 37.824,30.591 18.596,28.01 1.189,35.252 -13.808,41.492 -34.554,46.671 -42.927,61 m 442.705,130.494 c -0.322,8.859 -0.172,18.276 -2.807,26.831 -2.565,8.322 -7.731,15.135 -13.916,21.121 -11.635,11.26 -24.389,22.5 -38.449,30.631 -18.02,10.421 -37.556,12.19 -57.969,12.506 -22.249,0.346 -44.499,0.653 -66.748,0.979 -10.849,0.16 -22.3,-0.7 -33.06,0.831 -9.182,1.306 -15.901,7.779 -24.468,10.774 -16.855,5.893 -32.897,-3.178 -46.045,-13.549 -0.082,0 -0.159,0.008 -0.242,0.006 -44.68,-1.002 -89.534,-0.931 -134.175,-3.038 -9.901,-0.466 -18.468,-3.053 -25.422,-10.412 -7.415,-7.847 -13.746,-16.976 -20.484,-25.409 -1.445,-1.808 -2.89,-3.616 -4.335,-5.425 -1.528,-0.336 -3,-1.122 -4.264,-2.487 -13.491,-14.567 -25.455,-30.477 -35.646,-47.518 -1.957,-3.274 -1.359,-6.84 0.508,-9.587 -0.323,-1.584 -0.587,-3.194 -0.771,-4.84 -1.429,-12.78 3.594,-24.934 5.711,-37.346 0.205,-1.202 0.371,-2.41 0.544,-3.617 -1.205,-1.441 -1.993,-3.379 -2.061,-5.835 -0.209,-7.531 0.298,-15.035 1.477,-22.441 0.841,-12.768 1.681,-25.536 2.522,-38.303 0.586,-8.909 1.164,-17.819 1.759,-26.728 0.582,-8.709 1.154,-17.722 7.044,-24.694 4.5,-5.326 10.755,-7.966 17.2,-10.173 8.46,-2.897 16.233,-6.646 24.273,-10.538 7.188,-3.481 14.565,-6.719 22.403,-8.4 9.676,-2.074 19.654,-2.386 29.501,-2.903 78.705,-4.13 157.428,-8.983 236.236,-10.647 20.503,-0.433 41.012,-0.632 61.52,-0.505 8.822,0.055 17.779,-0.251 26.575,0.43 10.385,0.804 17.263,5.705 24.921,12.3 6.638,5.717 13.265,11.446 19.897,17.168 7.248,6.255 15.564,12.152 21.844,19.404 5.354,6.183 6.798,13.168 7.023,21.115 0.302,10.673 0.369,21.359 0.526,32.034 0.583,39.419 0.815,78.861 -0.622,118.265" /></g><g
           transform="translate(376.6372,627.5222)"
           id="g216"><path
             id="path218"
             style="fill:#b7399c;fill-opacity:1;fill-rule:nonzero;stroke:none"
             d="m 0,0 c -3.053,25.489 35.047,62.987 62.048,67.199 17.171,2.678 35.027,2.547 52.364,3.621 18.038,1.118 36.076,2.236 54.115,3.353 11.855,0.735 18.073,19.552 6.135,18.812 C 154.62,91.743 128.441,90.234 108.399,88.992 88.664,87.769 67.206,88.61 48.075,83.136 35.37,79.5 21.417,60.208 12.875,50.436 1.133,37.004 -7.477,27.933 -6.642,9.843 -6.093,-2.041 2.741,-9.933 2.189,2.018 Z" /></g><g
           transform="translate(617.4761,701.8952)"
           id="g220"><path
             id="path222"
             style="fill:#b7399c;fill-opacity:1;fill-rule:nonzero;stroke:none"
             d="m 0,0 c 22.829,1.289 45.705,1.477 68.549,0.439 11.419,-0.518 22.824,-1.333 34.2,-2.442 10.031,-0.979 20.616,-1.522 29.182,-7.398 7.349,-5.042 13.899,-12.097 19.919,-18.636 5.822,-6.325 13.018,-10.622 14.705,-19.252 1.792,-9.173 5.993,-20.547 4.122,-29.468 -2.071,-9.869 0.247,-20.984 1.879,-31 1.915,-11.749 7.657,-6.064 5.752,5.63 -1.728,10.603 2.27,21.33 4.101,31.648 1.822,10.27 2.373,20.663 -1.24,30.633 -3.429,9.463 -9.437,17.574 -16.207,24.922 -6.707,7.278 -14.017,14.601 -22.058,20.392 -9.202,6.627 -19.602,8.761 -30.646,10.073 -12.077,1.434 -24.229,2.381 -36.37,3.068 C 50.608,20.039 25.276,19.971 0,18.544 -11.866,17.874 -11.943,-0.674 0,0" /></g><g
           transform="translate(318.1577,557.1359)"
           id="g224"><path
             id="path226"
             style="fill:#b7399c;fill-opacity:1;fill-rule:nonzero;stroke:none"
             d="m 0,0 c 7.412,-20.004 4.79,-34.963 12.073,-55.03 3.052,-8.411 7.041,-16.454 13.612,-22.705 7.439,-7.078 17.216,-12.335 26.375,-16.829 18.249,-8.953 37.679,-14.338 57.838,-16.691 22.945,-2.678 46.537,-1.864 69.611,-2.411 47.988,-1.137 95.975,-2.274 143.963,-3.411 24.199,-0.573 48.397,-1.146 72.596,-1.72 11.747,-0.278 23.5,-0.698 35.25,-0.83 11.024,-0.124 20.079,2.311 28.828,9.108 9.737,7.566 18.999,15.808 28.446,23.732 9.73,8.163 17.298,15.297 21.208,27.738 7.973,25.376 3.269,45.921 4.262,72.503 0.337,9.045 3.693,20.491 0.337,9.045 -6.193,-21.125 -12.385,-42.25 -18.578,-63.375 -2.711,-9.247 -4.216,-18.674 -11.591,-25.397 -8.132,-7.415 -16.894,-14.232 -25.326,-21.305 -6.727,-5.643 -13.227,-12.92 -22.506,-13.446 -10.491,-0.596 -21.215,0.318 -31.716,0.567 -22.559,0.535 -45.117,1.069 -67.675,1.603 -45.116,1.069 -90.233,2.139 -135.349,3.208 -22.558,0.534 -45.117,1.068 -67.675,1.603 -19.126,0.453 -37.545,2.455 -55.771,8.599 -10.019,3.378 -19.576,7.895 -28.63,13.352 -8.434,5.083 -14.937,10.296 -18.738,19.612 C 22.457,-31.928 17.57,-10.114 9.868,10.675 5.758,21.769 -0.27,22.393 3.889,11.167 Z" /></g><g
           transform="translate(549.6768,723.6491)"
           id="g228"><path
             id="path230"
             style="fill:#b7399c;fill-opacity:1;fill-rule:nonzero;stroke:none"
             d="m 0,0 c 9.334,-17.228 29.174,-20.005 46.95,-19.562 11.912,0.296 20.908,18.305 8.951,18.008 C 44.991,-1.826 14.023,1.521 8.054,12.536 2.367,23.033 -5.692,10.504 0,0" /></g><g
           transform="translate(523.1812,780.1579)"
           id="g232"><path
             id="path234"
             style="fill:#b7399c;fill-opacity:1;fill-rule:nonzero;stroke:none"
             d="m 0,0 c 37.422,18.978 81.603,20.564 120.61,5.478 4.704,-1.82 10.127,2.008 11.406,6.475 1.494,5.221 -1.828,9.608 -6.476,11.406 C 81.895,40.239 32.254,37.116 -9.359,16.012 -20.006,10.613 -10.63,-5.391 0,0" /></g><g
           transform="translate(522.5079,443.2248)"
           id="g236"><path
             id="path238"
             style="fill:#b7399c;fill-opacity:1;fill-rule:nonzero;stroke:none"
             d="m 0,0 c -4.639,2.199 -10.564,1.729 -15.609,2.037 -6.194,0.378 -12.389,0.755 -18.583,1.133 -1.674,0.102 -3.102,-0.186 -4.305,-0.741 -0.904,0.399 -1.809,0.797 -2.713,1.195 -4.617,2.033 -9.907,1.313 -12.687,-3.326 -2.346,-3.918 -1.248,-10.672 3.327,-12.686 l 32.777,-14.432 c 8.084,-3.559 21.121,-10.537 25.279,2.139 1.306,3.982 0.113,8.91 -0.388,12.927 C 6.468,-6.7 4.86,-2.303 0,0" /></g><g
           transform="translate(685.2955,438.6657)"
           id="g240"><path
             id="path242"
             style="fill:#b7399c;fill-opacity:1;fill-rule:nonzero;stroke:none"
             d="m 0,0 -13.746,1.579 c -3.264,0.375 -6.709,1.121 -9.953,0.44 -4.963,4.319 -15.384,2.039 -15.98,-6.79 -0.31,-4.613 -0.621,-9.226 -0.931,-13.838 -0.269,-3.98 -1.124,-8.476 0.027,-12.39 2.64,-8.975 12.716,-9.873 20.481,-11.461 8.949,-1.831 13.509,1.596 18.584,8.639 4.792,6.65 8.184,14.23 10.458,22.084 C 10.774,-5.404 5.799,-0.666 0,0" /></g><g
           transform="translate(568.5591,750.4758)"
           id="g244"><path
             id="path246"
             style="fill:#ef7bd1;fill-opacity:1;fill-rule:nonzero;stroke:none"
             d="m 0,0 c 3.524,0.77 7.079,1.077 10.634,1.204 3.554,0.109 7.111,-0.018 10.648,-0.345 1.776,-0.173 3.513,-0.38 5.306,-0.656 0.481,-0.082 1.027,-0.183 1.629,-0.411 0.594,-0.22 1.285,-0.626 1.787,-1.274 0.507,-0.648 0.716,-1.386 0.788,-1.982 0.069,-0.607 0.037,-1.126 0.006,-1.582 -0.292,-3.524 -0.679,-7.047 -1.454,-10.571 -0.779,3.523 -1.167,7.046 -1.462,10.569 -0.041,0.855 -0.254,1.451 -0.391,1.474 -0.08,0.057 -0.548,0.243 -1.35,0.287 l -5.205,0.455 C 17.457,-2.506 13.982,-2.131 10.498,-1.699 7.015,-1.238 3.522,-0.775 0,0" /></g><g
           transform="translate(633.1265,737.0129)"
           id="g248"><path
             id="path250"
             style="fill:#ef7bd1;fill-opacity:1;fill-rule:nonzero;stroke:none"
             d="m 0,0 c 26.35,1.198 52.745,1.214 79.116,0.446 6.594,-0.18 13.188,-0.4 19.776,-0.727 6.561,-0.312 13.33,-0.553 20.131,-2.105 3.391,-0.764 6.773,-1.929 9.951,-3.575 3.172,-1.638 6.032,-3.672 8.695,-5.799 2.668,-2.135 5.141,-4.356 7.611,-6.516 l 7.424,-6.518 14.755,-13.143 c 2.429,-2.21 4.968,-4.276 7.442,-6.938 1.22,-1.321 2.382,-2.803 3.346,-4.471 0.977,-1.678 1.653,-3.481 2.132,-5.246 0.946,-3.561 1.216,-6.947 1.569,-10.205 0.36,-3.292 0.673,-6.588 0.963,-9.885 0.584,-6.594 1.032,-13.2 1.287,-19.814 1.166,-26.438 0.139,-52.967 -3.452,-79.102 1.025,26.353 0.691,52.655 -1.362,78.807 -0.514,6.538 -1.175,13.06 -1.863,19.576 -0.359,3.257 -0.741,6.51 -1.168,9.758 -0.418,3.273 -0.784,6.479 -1.607,9.275 -0.418,1.4 -0.946,2.691 -1.629,3.86 -0.694,1.179 -1.575,2.307 -2.596,3.396 -2.022,2.16 -4.603,4.269 -7.064,6.465 l -14.846,13.039 -7.376,6.572 c -2.47,2.194 -4.886,4.392 -7.348,6.389 -2.464,2 -4.994,3.811 -7.67,5.214 -2.664,1.405 -5.553,2.419 -8.562,3.187 -6.035,1.528 -12.504,1.938 -19.072,2.386 l -19.689,1.32 C 52.631,-2.681 26.34,-1.36 0,0" /></g><g
           transform="translate(531.376,734.0983)"
           id="g252"><path
             id="path254"
             style="fill:#ef7bd1;fill-opacity:1;fill-rule:nonzero;stroke:none"
             d="m 0,0 c -25.215,0.222 -50.248,-1.734 -75.168,-4.775 -12.455,-1.565 -24.907,-3.203 -37.347,-5.041 l -18.633,-2.663 c -2.987,-0.467 -5.636,-1.132 -7.762,-2.503 -2.2,-1.381 -4.165,-3.488 -6.115,-5.829 l -23.71,-29.31 -11.961,-14.592 -5.985,-7.293 c -2.003,-2.424 -4.088,-4.831 -5.802,-7.229 -1.723,-2.418 -3.072,-4.904 -3.595,-7.604 -0.565,-2.738 -0.452,-5.758 -0.346,-8.891 0.226,-6.282 0.504,-12.564 0.817,-18.846 0.552,-12.569 1.324,-25.131 2.002,-37.72 -2.042,12.442 -3.626,24.951 -5.028,37.484 -0.672,6.27 -1.267,12.547 -1.835,18.829 -0.283,3.132 -0.56,6.461 0,9.941 0.544,3.537 2.182,6.768 3.999,9.524 1.849,2.795 3.811,5.222 5.719,7.727 l 5.815,7.449 11.642,14.893 c 7.825,9.894 15.62,19.745 23.543,29.618 2.094,2.455 4.446,5.059 7.608,7.028 1.579,0.985 3.344,1.732 5.048,2.227 1.713,0.507 3.397,0.811 5.019,1.059 6.339,0.869 12.505,1.709 18.782,2.485 12.514,1.511 25.044,3.03 37.636,4.037 C -50.513,2.162 -25.079,2.782 0,0" /></g><g
           transform="translate(378.8262,518.6667)"
           id="g256"><path
             id="path258"
             style="fill:#ef7bd1;fill-opacity:1;fill-rule:nonzero;stroke:none"
             d="m 0,0 c 3.323,-3.411 7.211,-6.143 11.105,-8.848 3.882,-2.703 7.832,-5.496 11.298,-8.805 3.507,-3.166 7.074,-6.257 11.046,-8.614 3.944,-2.418 8.301,-3.826 12.87,-4.45 4.561,-0.654 9.25,-0.69 14.001,-0.74 l 14.241,-0.137 28.481,-0.266 56.959,-0.376 56.96,-0.271 56.969,-0.289 c 18.991,-0.175 37.984,-0.207 56.978,-0.463 l 14.245,-0.156 c 4.756,-0.077 9.424,-0.044 14.152,0.083 4.712,0.136 9.422,0.376 14.09,0.827 4.674,0.492 9.289,1.031 13.56,2.633 4.316,1.499 8.338,3.802 11.822,6.819 3.503,3.004 6.453,6.664 9.146,10.517 2.691,3.865 5.113,7.949 7.589,12.004 2.491,4.048 5.033,8.078 7.807,11.937 -5.056,-8.06 -8.946,-16.712 -13.963,-24.882 -2.509,-4.076 -5.411,-7.997 -8.974,-11.354 -3.546,-3.366 -7.784,-6.062 -12.361,-7.882 -1.159,-0.414 -2.29,-0.9 -3.485,-1.237 -1.197,-0.36 -2.388,-0.629 -3.581,-0.89 -2.385,-0.509 -4.768,-0.861 -7.152,-1.19 -4.768,-0.631 -9.538,-1.043 -14.312,-1.348 -4.758,-0.319 -9.589,-0.453 -14.33,-0.499 l -14.245,-0.206 c -18.995,-0.319 -37.991,-0.397 -56.987,-0.566 -18.997,-0.086 -37.996,-0.069 -56.996,-0.036 -18.999,0.14 -37.999,0.299 -56.998,0.613 -18.999,0.376 -37.998,0.729 -56.991,1.407 -9.497,0.312 -18.993,0.633 -28.487,1.04 l -14.239,0.637 c -4.734,0.224 -9.573,0.399 -14.394,1.293 -2.404,0.456 -4.799,1.085 -7.106,1.988 -2.309,0.906 -4.501,2.069 -6.536,3.421 -4.09,2.693 -7.613,6.014 -10.958,9.404 C 14.827,-12.002 6.231,-7.271 0,0" /></g><g
           transform="translate(522.2794,815.7424)"
           id="g260"><path
             id="path262"
             style="fill:#ef7bd1;fill-opacity:1;fill-rule:nonzero;stroke:none"
             d="m 0,0 c 7.992,5.279 16.815,9.277 25.948,12.329 9.151,3.017 18.662,5.011 28.273,5.972 9.612,0.963 19.33,0.885 28.897,-0.267 9.556,-1.185 18.995,-3.368 27.87,-6.973 -9.503,1.09 -18.864,1.933 -28.224,2.126 -9.35,0.226 -18.668,-0.118 -27.93,-1.035 C 45.572,11.231 36.369,9.729 27.247,7.662 18.108,5.629 9.098,2.951 0,0" /></g><g
           transform="translate(335.7852,491.6423)"
           id="g264"><path
             id="path266"
             style="fill:#000000;fill-opacity:1;fill-rule:nonzero;stroke:none"
             d="M 0,0 0.014,-0.014 C 0.01,-0.009 0.005,-0.005 0,0 M 412.52,-61.684 C 346.385,-61.685 62.814,-48.845 60.121,-48.6 46.799,-47.389 2.584,-18.319 -7.867,-7.868 c -2.674,2.674 -8.237,8.236 -12.504,90.824 -2.06,39.857 -2.811,78.9 -2.818,79.29 -0.014,0.683 0.1,1.363 0.334,2.006 l 3.912,10.76 c 4.387,12.065 54.131,73.192 70.214,77.786 13.915,3.976 146.601,10.264 161.684,10.968 3.052,0.13 5.674,-2.228 5.817,-5.298 0.144,-3.069 -2.229,-5.673 -5.298,-5.816 C 154.756,249.912 63.917,244.84 54.328,242.1 50.549,241.021 38.223,230.27 20.089,209.217 4.814,191.482 -7.019,175.247 -8.486,171.209 l -3.559,-9.787 C -10.635,88.378 -5.728,8.386 0.103,-0.102 11.425,-11.327 52.901,-36.771 61.128,-37.52 c 18.534,-1.684 348.253,-15.236 362.246,-12.807 4.324,0.927 17.801,9.495 35.109,24.062 17.984,15.136 27.281,25.892 28.14,28.695 1.213,4.781 2.992,48.15 2.856,95.941 -0.186,65.309 -3.849,93.578 -6.929,97.941 -11.279,15.98 -47.496,47.259 -58.714,50.711 -8.709,2.68 -94.262,4.871 -146.145,5.623 -3.071,0.045 -5.525,2.571 -5.482,5.644 0.044,3.044 2.527,5.482 5.562,5.482 0.026,0 0.055,0 0.082,-10e-4 13.898,-0.201 136.158,-2.084 149.255,-6.113 14.522,-4.469 52.515,-37.905 64.533,-54.929 2.156,-3.057 8.721,-12.356 8.966,-104.676 0.116,-44.103 -1.465,-92.001 -3.253,-98.559 -3.561,-13.055 -55.823,-57.309 -71.694,-60.709 -1.506,-0.323 -6.091,-0.469 -13.14,-0.469" /></g><g
           transform="translate(599.5953,708.6901)"
           id="g268"><path
             id="path270"
             style="fill:#000000;fill-opacity:1;fill-rule:nonzero;stroke:none"
             d="m 0,0 z m -33.501,-0.8 z m 31.912,-0.542 z m -32.2,0.917 c 5.184,-1.556 26.656,-1.162 32.734,0.135 3.467,7.772 10.483,39.602 7.631,45.424 -3.78,3.301 -26.811,6.451 -41.419,2.389 -5.004,-1.392 -7.136,-3.225 -7.443,-4.372 -2.529,-9.488 5.001,-38.482 8.497,-43.576 m 14.277,-12.154 c -10.504,0 -17.319,0.899 -20.282,2.676 -3.927,2.357 -7.6,10.812 -10.915,25.13 -1.472,6.361 -4.645,22.094 -2.327,30.792 1.761,6.602 8.238,11.032 19.25,13.168 15.385,2.978 42.843,1.208 49.265,-7.352 1.478,-1.971 5.406,-7.209 0.145,-33.116 -1.147,-5.652 -5.213,-24.358 -9.349,-27.804 -1.041,-0.867 -3.804,-3.17 -22.563,-3.467 -1.109,-0.017 -2.185,-0.027 -3.224,-0.027" /></g><g
           transform="translate(429.5,688.1198)"
           id="g272"><path
             id="path274"
             style="fill:#000000;fill-opacity:1;fill-rule:nonzero;stroke:none"
             d="M 0,0 -0.016,-0.011 C -0.01,-0.008 -0.005,-0.003 0,0 m 350.449,-27.816 z m 4.665,-121.081 z m -26.687,-34.556 z m -85.945,-12.745 c -20.746,0 -46.335,0.094 -77.965,0.311 -79.37,0.544 -158.745,1.64 -159.538,1.651 -0.7,0.009 -1.393,0.151 -2.041,0.418 l -8.313,3.423 c -6.113,2.518 -41.938,21.975 -47.194,32.49 -4.828,9.654 -8.877,102.803 -7.886,111.223 0.294,2.5 0.842,7.154 23.443,29.193 10.566,10.303 21.153,19.708 21.259,19.802 0.139,0.124 0.284,0.24 0.435,0.349 l 8.804,6.358 c 2.382,1.72 6.815,4.922 74.442,8.892 32.691,1.919 64.717,3.074 65.037,3.085 3.043,0.112 5.649,-2.289 5.758,-5.36 0.111,-3.071 -2.29,-5.649 -5.36,-5.759 C 73.469,7.733 7.346,3.417 -0.158,-0.114 l -8.419,-6.08 c -18.345,-16.296 -39.011,-36.822 -40.849,-41.984 -1.088,-10.851 3.817,-97.255 6.857,-104.857 2.546,-5.085 30.971,-22.765 41.43,-27.071 l 7.333,-3.019 c 122.531,-1.697 307.418,-3.176 321.895,-0.401 6.809,4.206 25.228,29.073 26.962,34.419 0.003,0.451 0.008,1.147 0.016,2.063 0.645,79.255 -1.992,113.47 -4.499,118.985 -11.416,10.605 -35.808,31.108 -43.145,33.676 -7.402,2.282 -86.541,4.022 -134.678,4.579 -3.073,0.036 -5.535,2.555 -5.499,5.627 0.036,3.051 2.519,5.499 5.562,5.499 0.022,0 0.043,0 0.065,-10e-4 21.305,-0.246 128.096,-1.657 138.225,-5.202 12.715,-4.451 47.103,-36.081 47.442,-36.397 2.798,-2.612 8.622,-8.047 7.653,-126.857 -0.01,-1.258 -0.017,-2.084 -0.017,-2.413 0,-8.319 -24.512,-39.4 -33.283,-44.042 -1.936,-1.026 -4.939,-2.607 -90.411,-2.608" /></g><g
           transform="translate(660.5015,821.7687)"
           id="g276"><path
             id="path278"
             style="fill:#000000;fill-opacity:1;fill-rule:nonzero;stroke:none"
             d="m 0,0 z m -160.431,-9.42 z m 0.127,0.214 c 0.06,-3.547 6.856,-15.105 15.136,-25.838 2.917,0.401 8.73,2.23 13.962,3.876 13.133,4.13 31.119,9.788 52.248,11.262 23.035,1.605 41.754,-2.839 54.141,-5.781 4.159,-0.987 8.832,-2.096 10.616,-2.096 h 0.014 c 4.186,3.328 13.263,22.296 13.644,28.296 -6.778,5.53 -51.239,20.357 -87.224,15.47 -39.101,-5.31 -69.103,-19.883 -72.537,-25.189 m 13.979,-37.024 c -1.177,0 -2.247,0.135 -3.232,0.425 -1.096,0.323 -2.066,0.975 -2.778,1.869 -8.024,10.069 -21.132,28.338 -18.771,37.573 1.554,6.073 10.917,12.588 27.827,19.361 16.259,6.512 35.443,11.488 54.015,14.01 24.293,3.298 49.97,-1.761 63.119,-5.07 C -17.19,19.685 -8.794,16.914 -2.5,14.136 5.687,10.523 9.527,7.368 10.338,3.588 c 1.904,-8.89 -11.473,-38.392 -20.582,-41.854 -3.754,-1.425 -8.508,-0.297 -17.144,1.754 -11.732,2.785 -29.461,6.997 -50.795,5.507 -19.819,-1.383 -37.081,-6.812 -49.685,-10.777 -8.374,-2.635 -14.141,-4.448 -18.457,-4.448" /></g><g
           transform="translate(620.7466,377.5544)"
           id="g280"><path
             id="path282"
             style="fill:#000000;fill-opacity:1;fill-rule:nonzero;stroke:none"
             d="m 0,0 c -13.368,0 -26.642,0.233 -35.229,0.423 -11.868,0.262 -71.517,1.75 -80.578,5.296 -11.939,4.672 -40.042,45.423 -48.371,57.802 -1.715,2.548 -1.039,6.006 1.51,7.721 2.547,1.715 6.006,1.038 7.721,-1.51 16.144,-23.991 37.249,-51.325 43.195,-53.652 10.982,-4.045 142.453,-6.831 152.898,-3.238 5.251,2.15 21.059,27.203 32.493,49.241 1.415,2.728 4.775,3.79 7.5,2.375 2.727,-1.415 3.791,-4.772 2.376,-7.5 C 77.52,45.402 57.044,7.325 45.307,2.524 40.427,0.527 20.107,0 0,0" /></g><g
           transform="translate(543.1456,347.2961)"
           id="g284"><path
             id="path286"
             style="fill:#000000;fill-opacity:1;fill-rule:nonzero;stroke:none"
             d="m 0,0 z m 43.297,-14.014 c -0.937,0 -1.863,0.003 -2.779,0.009 -15.658,0.093 -42.779,1.039 -48.49,6.311 -2.177,2.009 -5.466,5.046 -11.68,54.368 -2.956,23.467 -5.162,46.512 -5.184,46.742 -0.292,3.059 1.951,5.774 5.01,6.066 3.057,0.292 5.775,-1.952 6.066,-5.01 3.896,-40.851 9.91,-86.28 13.47,-93.925 3.703,-1.407 18.497,-3.331 41.548,-3.43 25.743,-0.099 39.101,2.155 41.788,3.675 4.39,6.087 11.093,50.628 14.835,88.869 0.3,3.059 3.03,5.293 6.079,4.995 3.058,-0.3 5.294,-3.021 4.995,-6.079 C 108.934,88.363 106.824,66.916 103.72,44.848 97.188,-1.601 92.804,-5.469 90.451,-7.546 84.459,-12.832 62.093,-14.014 43.297,-14.014" /></g><g
           transform="translate(389.939,740.1657)"
           id="g288"><path
             id="path290"
             style="fill:#000000;fill-opacity:1;fill-rule:nonzero;stroke:none"
             d="M 0,0 C 0,-0.002 0,-0.005 0,-0.007 0,-0.005 0,-0.003 0,0 m 5.516,-4.9 c -2.201,0 -4.166,1.305 -5.056,3.254 -4.48,6.37 -53.574,57.568 -93.115,98.803 -21.331,22.245 -41.479,43.256 -56.722,59.359 -27.054,28.578 -27.026,28.78 -26.577,32.173 0.223,1.676 1.214,3.191 2.661,4.064 0.325,0.196 33.475,19.293 56.057,13.034 3.948,-1.094 13.194,-3.656 90.663,-101.158 C 11.202,57.085 47.2,9.55 47.56,9.076 49.414,6.625 48.931,3.137 46.481,1.283 c -2.45,-1.856 -5.938,-1.371 -7.793,1.078 -0.354,0.467 -35.764,47.226 -73.15,94.312 -69.372,87.369 -83.24,97.421 -85.837,98.42 -12.371,3.427 -31.48,-4.003 -41.567,-8.872 11.465,-12.767 46.121,-48.909 77.241,-81.363 C 10.53,5.627 10.639,4.716 11.047,1.328 11.414,-1.722 9.238,-4.492 6.188,-4.859 5.962,-4.887 5.738,-4.9 5.516,-4.9" /></g><g
           transform="translate(89.0596,721.5065)"
           id="g292"><path
             id="path294"
             style="fill:#000000;fill-opacity:1;fill-rule:nonzero;stroke:none"
             d="m 0,0 z m 199.82,-185.628 c 0.017,-0.002 0.033,-0.005 0.049,-0.008 -0.017,0.003 -0.033,0.006 -0.049,0.008 m 31.632,-12.631 c -5.854,0 -24.397,0.127 -33.484,1.66 -2.268,0.383 -8.295,1.4 -107.424,78.237 -20.511,15.9 -97.794,76.237 -101.156,80.965 -5.454,7.668 -0.786,36.48 -0.236,39.74 0.811,4.806 10.186,16.856 20.401,17.872 3.565,0.357 6.937,0.681 108.122,-82.799 44.855,-37.007 89.482,-74.53 97.321,-81.127 l 18.302,-2.719 c 3.039,-0.451 5.137,-3.281 4.686,-6.32 -0.452,-3.039 -3.274,-5.137 -6.32,-4.685 l -19.863,2.95 c -1.02,0.152 -1.978,0.584 -2.767,1.249 C 138.785,-94.049 24.504,0.637 9.603,8.917 5.825,7.711 1.079,2.377 0.068,0.159 -1.375,-8.602 -3.027,-26.762 -1.517,-30.912 9.925,-42.129 185.949,-179.636 200.16,-185.684 c 9.894,-1.577 32.765,-1.446 32.999,-1.444 h 0.038 c 3.055,0 5.542,-2.467 5.562,-5.526 0.02,-3.073 -2.453,-5.58 -5.526,-5.6 -0.146,-0.001 -0.778,-0.005 -1.781,-0.005" /></g><g
           transform="translate(99.1675,730.6218)"
           id="g296"><path
             id="path298"
             style="fill:#000000;fill-opacity:1;fill-rule:nonzero;stroke:none"
             d="m 0,0 c -0.129,0 -0.259,0.004 -0.391,0.014 -3.064,0.212 -5.377,2.869 -5.164,5.935 0.703,10.148 4.394,61.205 7.921,69.769 2.279,5.533 28.508,34.064 50.11,57.025 10.986,11.675 47.196,49.95 51.896,52.238 5.51,2.683 22.226,5.426 25.521,5.948 3.04,0.486 5.884,-1.589 6.366,-4.623 0.481,-3.035 -1.589,-5.885 -4.623,-6.366 -7.308,-1.16 -18.777,-3.393 -22.127,-4.841 C 101.579,169.036 17.621,80.534 12.616,71.384 10.721,66.454 7.542,33.973 5.544,5.178 5.341,2.245 2.897,0 0,0" /></g><g
           transform="translate(763.8209,744.8893)"
           id="g300"><path
             id="path302"
             style="fill:#000000;fill-opacity:1;fill-rule:nonzero;stroke:none"
             d="M 0,0 C 0,-0.002 -0.002,-0.005 -0.002,-0.007 -0.002,-0.005 0,-0.002 0,0 m -0.002,-0.012 v -0.002 z m -5.515,-4.887 c -0.221,0 -0.446,0.014 -0.671,0.041 -3.051,0.367 -5.226,3.137 -4.859,6.188 0.408,3.388 0.518,4.298 95.672,103.53 31.12,32.453 65.775,68.594 77.24,81.36 -10.091,4.869 -29.208,12.291 -41.658,8.845 C 117.702,194.095 103.833,184.042 34.452,96.66 -2.934,49.574 -38.334,2.828 -38.688,2.361 c -1.856,-2.449 -5.344,-2.93 -7.793,-1.078 -2.45,1.854 -2.933,5.343 -1.079,7.793 0.36,0.475 36.359,48.01 74.133,95.554 77.469,97.501 86.715,100.064 90.664,101.158 22.582,6.257 55.732,-12.839 56.055,-13.034 1.447,-0.873 2.438,-2.388 2.661,-4.064 0.45,-3.393 0.478,-3.595 -26.575,-32.173 C 134.134,140.414 113.986,119.403 92.655,97.159 53.114,55.923 4.019,4.725 -0.462,-1.645 -1.35,-3.594 -3.315,-4.899 -5.517,-4.899" /></g><g
           transform="translate(1064.7007,726.2316)"
           id="g304"><path
             id="path306"
             style="fill:#000000;fill-opacity:1;fill-rule:nonzero;stroke:none"
             d="m 0,0 z m -199.832,-185.63 c -0.008,-0.002 -0.018,-0.003 -0.025,-0.005 0.007,0.002 0.017,0.003 0.025,0.005 m -31.619,-12.63 c -1.006,0 -1.636,0.005 -1.782,0.005 -3.073,0.021 -5.547,2.527 -5.527,5.6 0.021,3.059 2.507,5.527 5.562,5.527 h 0.037 c 0.239,-0.003 23.112,-0.133 32.999,1.443 14.213,6.048 190.237,143.556 201.679,154.772 1.512,4.155 -0.141,22.314 -1.586,31.072 -1.01,2.217 -5.755,7.552 -9.534,8.758 -14.902,-8.28 -129.182,-102.966 -199.431,-162.154 -0.788,-0.665 -1.747,-1.097 -2.768,-1.249 l -19.862,-2.95 c -3.031,-0.453 -5.868,1.646 -6.32,4.685 -0.451,3.039 1.647,5.869 4.685,6.32 l 18.303,2.719 c 7.839,6.597 52.466,44.12 97.32,81.127 101.194,83.487 104.553,83.152 108.124,82.799 10.216,-1.015 19.589,-13.066 20.4,-17.873 0.55,-3.257 5.222,-32.064 -0.236,-39.738 -3.362,-4.729 -80.644,-65.066 -101.157,-80.965 -99.129,-76.838 -105.156,-77.855 -107.425,-78.238 -9.085,-1.533 -27.625,-1.66 -33.481,-1.66" /></g><g
           transform="translate(1054.5923,735.3469)"
           id="g308"><path
             id="path310"
             style="fill:#000000;fill-opacity:1;fill-rule:nonzero;stroke:none"
             d="m 0,0 c -2.896,0 -5.34,2.244 -5.544,5.178 -1.998,28.793 -5.179,61.272 -7.071,66.206 -5.006,9.15 -88.964,97.651 -96.893,103.714 -3.355,1.45 -14.822,3.683 -22.128,4.841 -3.034,0.481 -5.104,3.331 -4.623,6.365 0.482,3.035 3.325,5.107 6.366,4.624 3.294,-0.522 20.011,-3.265 25.521,-5.948 4.7,-2.287 40.909,-40.562 51.895,-52.238 C -30.874,109.782 -4.645,81.251 -2.365,75.718 1.16,67.152 4.852,16.096 5.556,5.948 5.769,2.883 3.456,0.226 0.391,0.013 0.261,0.004 0.129,0 0,0" /></g><g
           transform="translate(228.1646,826.9894)"
           id="g312"><path
             id="path314"
             style="fill:#000000;fill-opacity:1;fill-rule:nonzero;stroke:none"
             d="M 0,0 C 15.91,0 15.936,24.725 0,24.725 -15.909,24.725 -15.936,0 0,0" /></g><g
           transform="translate(280.9844,780.0383)"
           id="g316"><path
             id="path318"
             style="fill:#000000;fill-opacity:1;fill-rule:nonzero;stroke:none"
             d="M 0,0 C 15.91,0 15.936,24.726 0,24.726 -15.909,24.726 -15.936,0 0,0" /></g><g
           transform="translate(323.5337,738.9562)"
           id="g320"><path
             id="path322"
             style="fill:#000000;fill-opacity:1;fill-rule:nonzero;stroke:none"
             d="M 0,0 C 15.91,0 15.936,24.725 0,24.725 -15.909,24.725 -15.936,0 0,0" /></g><g
           transform="translate(157.7383,753.6286)"
           id="g324"><path
             id="path326"
             style="fill:#000000;fill-opacity:1;fill-rule:nonzero;stroke:none"
             d="M 0,0 C 15.91,0 15.936,24.725 0,24.725 -15.91,24.725 -15.936,0 0,0" /></g><g
           transform="translate(213.4927,708.1447)"
           id="g328"><path
             id="path330"
             style="fill:#000000;fill-opacity:1;fill-rule:nonzero;stroke:none"
             d="M 0,0 C 15.91,0 15.936,24.725 0,24.725 -15.91,24.725 -15.936,0 0,0" /></g><g
           transform="translate(267.7798,665.5954)"
           id="g332"><path
             id="path334"
             style="fill:#000000;fill-opacity:1;fill-rule:nonzero;stroke:none"
             d="M 0,0 C 15.909,0 15.936,24.725 0,24.725 -15.91,24.725 -15.936,0 0,0" /></g><g
           transform="translate(831.191,740.4235)"
           id="g336"><path
             id="path338"
             style="fill:#000000;fill-opacity:1;fill-rule:nonzero;stroke:none"
             d="M 0,0 C 15.91,0 15.937,24.725 0,24.725 -15.909,24.725 -15.936,0 0,0" /></g><g
           transform="translate(879.6099,788.8415)"
           id="g340"><path
             id="path342"
             style="fill:#000000;fill-opacity:1;fill-rule:nonzero;stroke:none"
             d="M 0,0 C 15.909,0 15.936,24.726 0,24.726 -15.91,24.726 -15.937,0 0,0" /></g><g
           transform="translate(920.692,834.3254)"
           id="g344"><path
             id="path346"
             style="fill:#000000;fill-opacity:1;fill-rule:nonzero;stroke:none"
             d="M 0,0 C 15.909,0 15.936,24.726 0,24.726 -15.91,24.726 -15.937,0 0,0" /></g><g
           transform="translate(876.6754,655.3249)"
           id="g348"><path
             id="path350"
             style="fill:#000000;fill-opacity:1;fill-rule:nonzero;stroke:none"
             d="M 0,0 C 15.909,0 15.936,24.725 0,24.725 -15.91,24.725 -15.937,0 0,0" /></g><g
           transform="translate(932.4293,702.2756)"
           id="g352"><path
             id="path354"
             style="fill:#000000;fill-opacity:1;fill-rule:nonzero;stroke:none"
             d="M 0,0 C 15.91,0 15.937,24.726 0,24.726 -15.909,24.726 -15.936,0 0,0" /></g><g
           transform="translate(980.8472,744.8249)"
           id="g356"><path
             id="path358"
             style="fill:#000000;fill-opacity:1;fill-rule:nonzero;stroke:none"
             d="M 0,0 C 15.91,0 15.937,24.726 0,24.726 -15.909,24.726 -15.936,0 0,0" /></g><g
           transform="translate(383.6021,235.0134)"
           id="g360"></g></g></g></g></svg>